<svg width="328" height="558" viewBox="0 0 328 558" fill="none" xmlns="http://www.w3.org/2000/svg">
    <path d="M156.294 550.048H163.671L162.288 538.522L160.905 531.146L163.671 528.841V510.861L171.047 512.244L174.274 509.478L177.963 499.796L176.579 496.108L177.963 489.654L178.885 482.278H181.651L184.417 476.284L188.566 471.213H193.176H208.851H219.455L224.065 476.284L225.448 482.278L230.519 488.271L237.895 494.264L242.967 498.413L244.811 503.946H254.031L257.719 501.179L259.103 496.108H262.791V490.115L266.94 482.278L274.777 478.589L278.465 473.979L283.076 469.369L287.225 466.142V459.226H289.53L298.75 457.382H303.361V453.694L301.978 449.545L303.361 444.013L306.588 441.247L309.354 438.941L307.971 435.253V432.487H301.978V428.799L307.971 423.267L309.354 417.734L313.964 414.046V410.358V405.287H320.419L323.646 403.904L327.334 392.378V381.314L323.646 374.859L316.73 367.944L318.574 359.184L312.581 348.581L306.588 338.9V329.218L307.971 320.92L306.588 303.401V295.102L307.971 292.336V285.421L306.588 283.116L304.744 282.194L305.666 276.661L306.588 272.051L303.361 269.285L301.056 265.597V260.526L302.439 256.837L304.744 251.305V238.397L299.673 234.708L293.218 231.02V226.871L287.686 219.034L286.764 216.267L285.381 212.579L283.076 205.203V200.593L281.693 196.443V192.294L279.849 191.372V183.996L278.927 179.847L277.082 177.542L273.394 174.775V170.626V161.406L275.699 157.718L281.693 150.341V146.192L283.076 143.887L285.381 138.816L288.608 135.127L295.523 127.29L296.445 123.141L298.289 118.531L288.608 116.687L283.076 113.92L280.771 110.232L277.082 101.012L269.706 84.876L262.33 72.4284L256.336 65.5131L251.726 63.208L243.428 61.3639L240.662 59.9808L237.895 52.6044L232.363 51.2214L227.753 48.9163H223.143L210.695 57.2147H199.17L196.403 55.3706H190.41L186.261 53.9875L183.956 50.2993L181.651 47.5332L180.729 42.923L179.346 40.1568L177.502 33.7025H171.508L170.125 16.6447H111.575L110.192 15.2616L107.426 6.50217L105.582 0.0478516L94.9785 2.81399L31.3574 21.2549H24.442L19.3708 30.4753L11.5334 42.923L12.9164 48.9163L11.5334 65.5131L12.9164 68.7402L8.30622 71.9674L3.23497 81.6489L0.0078125 94.5575L3.23497 96.4016L6.46213 99.6287L8.30622 104.239H9.22827L11.5334 106.083V109.31H12.9164L15.6826 112.998L19.3708 113.92L25.3641 119.914H37.3506V118.07L40.1168 115.765L43.805 112.998L47.9542 112.076H55.7916V110.693H60.4018L61.7848 112.076L64.551 113.92L63.6289 148.036V157.718L62.7069 165.094L61.3238 212.118L65.9341 212.579L71.4663 214.423L84.375 219.495L94.9785 220.417L100.05 221.8L100.972 225.949H107.887L111.114 227.793L112.958 230.559V239.78L109.731 251.305L111.114 263.292L105.121 272.973L102.355 281.272L100.972 293.719L94.0564 302.479L95.4395 307.089L93.1344 308.933H88.9852L86.219 310.777L78.8427 311.699L76.9986 320.92L78.8427 322.764H87.6021L90.3682 325.069L90.8293 331.984L93.1344 336.594V338.9L87.6021 346.737H83.9139L78.8427 348.581L71.0053 352.269L66.3951 355.496L64.551 359.184L63.6289 366.1L61.3238 377.625L57.6356 388.229L53.0254 397.449L51.6423 405.748H62.2459L69.6222 403.904L75.1545 401.138H80.2258L82.9919 402.521L85.297 408.514L86.6801 416.812V426.955L88.0631 432.948L86.6801 440.324L82.9919 450.467V459.687L82.5309 468.447L79.7647 473.979H94.9785L100.511 471.674L104.66 468.908L109.731 475.362H116.647L117.108 478.589L123.101 482.739L128.172 483.661L128.633 485.966L131.86 488.732V491.959L128.633 496.108L130.938 503.946L135.087 509.939L133.243 517.315L135.087 519.159V521.464L138.315 531.146H142.003L147.074 539.905L156.294 550.048Z"
          fill="#EAFCFA"/>
    <g id="quadrant">
        <path d="M226.834 231.537C226.834 235.644 222.716 238.144 221.4 238.839C221.148 238.971 220.853 238.971 220.601 238.839C219.284 238.144 215.167 235.644 215.167 231.537C215.167 228.316 217.779 225.704 221 225.704C224.222 225.704 226.834 228.316 226.834 231.537Z"
              fill="#FDCA05"/>
        <circle cx="221" cy="231.538" r="2.5" fill="white"/>
        <path d="M226.052 237.788C226.564 238.168 226.834 238.599 226.834 239.038C226.834 239.476 226.564 239.908 226.052 240.288C225.54 240.668 224.804 240.983 223.917 241.203C223.03 241.422 222.024 241.538 221 241.538C219.976 241.538 218.97 241.422 218.084 241.203C217.197 240.983 216.46 240.668 215.949 240.288C215.437 239.908 215.167 239.476 215.167 239.038C215.167 238.599 215.437 238.168 215.949 237.788"
              stroke="#12C13E" stroke-width="2" stroke-linecap="round"/>
    </g>
<!--    <g id="quadrant">-->
<!--        <path d="M224.911 285.5C224.911 289.607 220.793 292.107 219.477 292.801C219.225 292.934 218.93 292.934 218.678 292.801C217.362 292.107 213.244 289.607 213.244 285.5C213.244 282.278 215.856 279.667 219.077 279.667C222.299 279.667 224.911 282.278 224.911 285.5Z"-->
<!--              fill="#FDCA05"/>-->
<!--        <circle cx="219.077" cy="285.5" r="2.5" fill="white"/>-->
<!--        <path d="M224.129 291.75C224.641 292.13 224.911 292.561 224.911 293C224.911 293.439 224.641 293.87 224.129 294.25C223.617 294.63 222.881 294.946 221.994 295.165C221.107 295.384 220.101 295.5 219.077 295.5C218.054 295.5 217.048 295.384 216.161 295.165C215.274 294.946 214.538 294.63 214.026 294.25C213.514 293.87 213.244 293.439 213.244 293C213.244 292.561 213.514 292.13 214.026 291.75"-->
<!--              stroke="#12C13E" stroke-width="2" stroke-linecap="round"/>-->
<!--    </g>-->
<!--    <g id="quadrant">-->
<!--        <path d="M224.911 313.577C224.911 317.684 220.793 320.184 219.477 320.878C219.225 321.011 218.93 321.011 218.678 320.878C217.362 320.184 213.244 317.684 213.244 313.577C213.244 310.355 215.856 307.744 219.077 307.744C222.299 307.744 224.911 310.355 224.911 313.577Z"-->
<!--              fill="#FDCA05"/>-->
<!--        <circle cx="219.077" cy="313.577" r="2.5" fill="white"/>-->
<!--        <path d="M224.129 319.827C224.641 320.207 224.911 320.638 224.911 321.077C224.911 321.516 224.641 321.947 224.129 322.327C223.617 322.707 222.881 323.023 221.994 323.242C221.107 323.462 220.101 323.577 219.077 323.577C218.054 323.577 217.048 323.462 216.161 323.242C215.274 323.023 214.538 322.707 214.026 322.327C213.514 321.947 213.244 321.516 213.244 321.077C213.244 320.638 213.514 320.207 214.026 319.827"-->
<!--              stroke="#12C13E" stroke-width="2" stroke-linecap="round"/>-->
<!--    </g>-->
<!--    <g id="quadrant">-->
<!--        <path d="M236.796 341.654C236.796 345.761 232.678 348.261 231.362 348.955C231.11 349.088 230.815 349.088 230.563 348.955C229.246 348.261 225.129 345.761 225.129 341.654C225.129 338.432 227.741 335.821 230.962 335.821C234.184 335.821 236.796 338.432 236.796 341.654Z"-->
<!--              fill="#FDCA05"/>-->
<!--        <circle cx="230.962" cy="341.654" r="2.5" fill="white"/>-->
<!--        <path d="M236.014 347.904C236.526 348.284 236.796 348.715 236.796 349.154C236.796 349.593 236.526 350.024 236.014 350.404C235.502 350.784 234.766 351.1 233.879 351.319C232.992 351.539 231.986 351.654 230.962 351.654C229.938 351.654 228.932 351.539 228.046 351.319C227.159 351.1 226.422 350.784 225.91 350.404C225.398 350.024 225.129 349.593 225.129 349.154C225.129 348.715 225.398 348.284 225.91 347.904"-->
<!--              stroke="#12C13E" stroke-width="2" stroke-linecap="round"/>-->
<!--    </g>-->
<!--    <g id="quadrant">-->
<!--        <path d="M168.468 70.3905C168.468 74.4974 164.351 76.9973 163.035 77.6916C162.783 77.8245 162.488 77.8245 162.236 77.6916C160.919 76.9973 156.802 74.4974 156.802 70.3905C156.802 67.1688 159.413 64.5571 162.635 64.5571C165.857 64.5571 168.468 67.1688 168.468 70.3905Z"-->
<!--              fill="#FDCA05"/>-->
<!--        <circle cx="162.635" cy="70.3906" r="2.5" fill="white"/>-->
<!--        <path d="M167.687 76.6406C168.199 77.0207 168.468 77.4518 168.468 77.8906C168.468 78.3295 168.199 78.7606 167.687 79.1406C167.175 79.5207 166.439 79.8363 165.552 80.0557C164.665 80.2751 163.659 80.3906 162.635 80.3906C161.611 80.3906 160.605 80.2751 159.718 80.0557C158.832 79.8363 158.095 79.5207 157.583 79.1406C157.071 78.7606 156.802 78.3295 156.802 77.8906C156.802 77.4518 157.071 77.0207 157.583 76.6406"-->
<!--              stroke="#12C13E" stroke-width="2" stroke-linecap="round"/>-->
<!--    </g>-->
<!--    <g id="quadrant">-->
<!--        <path d="M133.436 295.461C133.436 299.568 129.319 302.068 128.002 302.762C127.75 302.895 127.455 302.895 127.203 302.762C125.887 302.068 121.77 299.568 121.77 295.461C121.77 292.24 124.381 289.628 127.603 289.628C130.825 289.628 133.436 292.24 133.436 295.461Z"-->
<!--              fill="#FDCA05"/>-->
<!--        <circle cx="127.603" cy="295.461" r="2.5" fill="white"/>-->
<!--        <path d="M132.655 301.711C133.167 302.091 133.436 302.523 133.436 302.961C133.436 303.4 133.167 303.831 132.655 304.211C132.143 304.591 131.406 304.907 130.52 305.126C129.633 305.346 128.627 305.461 127.603 305.461C126.579 305.461 125.573 305.346 124.686 305.126C123.799 304.907 123.063 304.591 122.551 304.211C122.039 303.831 121.77 303.4 121.77 302.961C121.77 302.523 122.039 302.091 122.551 301.711"-->
<!--              stroke="#12C13E" stroke-width="2" stroke-linecap="round"/>-->
<!--    </g>-->
<!--    <g id="quadrant">-->
<!--        <path d="M106.304 316.518C106.304 320.625 102.187 323.125 100.871 323.82C100.619 323.952 100.323 323.952 100.071 323.82C98.7551 323.125 94.6377 320.625 94.6377 316.518C94.6377 313.297 97.2494 310.685 100.471 310.685C103.693 310.685 106.304 313.297 106.304 316.518Z"-->
<!--              fill="#FDCA05"/>-->
<!--        <circle cx="100.471" cy="316.519" r="2.5" fill="white"/>-->
<!--        <path d="M105.523 322.769C106.035 323.149 106.304 323.58 106.304 324.019C106.304 324.457 106.035 324.889 105.523 325.269C105.011 325.649 104.274 325.964 103.388 326.184C102.501 326.403 101.495 326.519 100.471 326.519C99.4471 326.519 98.4411 326.403 97.5544 326.184C96.6676 325.964 95.9312 325.649 95.4192 325.269C94.9072 324.889 94.6377 324.457 94.6377 324.019C94.6377 323.58 94.9072 323.149 95.4192 322.769"-->
<!--              stroke="#12C13E" stroke-width="2" stroke-linecap="round"/>-->
<!--    </g>-->
<!--    <g id="quadrant">-->
<!--        <path d="M141.626 348.576C141.626 352.683 137.508 355.183 136.192 355.877C135.94 356.01 135.645 356.01 135.393 355.877C134.076 355.183 129.959 352.683 129.959 348.576C129.959 345.354 132.571 342.743 135.792 342.743C139.014 342.743 141.626 345.354 141.626 348.576Z"-->
<!--              fill="#FDCA05"/>-->
<!--        <circle cx="135.792" cy="348.576" r="2.5" fill="white"/>-->
<!--        <path d="M140.844 354.826C141.356 355.206 141.626 355.637 141.626 356.076C141.626 356.515 141.356 356.946 140.844 357.326C140.332 357.706 139.596 358.022 138.709 358.241C137.822 358.461 136.816 358.576 135.792 358.576C134.768 358.576 133.762 358.461 132.876 358.241C131.989 358.022 131.252 357.706 130.741 357.326C130.229 356.946 129.959 356.515 129.959 356.076C129.959 355.637 130.229 355.206 130.741 354.826"-->
<!--              stroke="#12C13E" stroke-width="2" stroke-linecap="round"/>-->
<!--    </g>-->
<!--    <g id="quadrant">-->
<!--        <path d="M121.834 420.5C121.834 424.607 117.716 427.107 116.4 427.801C116.148 427.934 115.853 427.934 115.601 427.801C114.284 427.107 110.167 424.607 110.167 420.5C110.167 417.278 112.779 414.667 116 414.667C119.222 414.667 121.834 417.278 121.834 420.5Z"-->
<!--              fill="#FDCA05"/>-->
<!--        <circle cx="116" cy="420.5" r="2.5" fill="white"/>-->
<!--        <path d="M121.052 426.75C121.564 427.13 121.834 427.561 121.834 428C121.834 428.439 121.564 428.87 121.052 429.25C120.54 429.63 119.804 429.946 118.917 430.165C118.03 430.384 117.024 430.5 116 430.5C114.976 430.5 113.97 430.384 113.084 430.165C112.197 429.946 111.46 429.63 110.949 429.25C110.437 428.87 110.167 428.439 110.167 428C110.167 427.561 110.437 427.13 110.949 426.75"-->
<!--              stroke="#12C13E" stroke-width="2" stroke-linecap="round"/>-->
<!--    </g>-->
<!--    <g id="quadrant">-->
<!--        <path d="M143.001 66.4998C143.001 70.6067 138.883 73.1067 137.567 73.801C137.315 73.9339 137.02 73.9339 136.768 73.801C135.451 73.1067 131.334 70.6067 131.334 66.4998C131.334 63.2782 133.946 60.6665 137.167 60.6665C140.389 60.6665 143.001 63.2782 143.001 66.4998Z"-->
<!--              fill="#FDCA05"/>-->
<!--        <circle cx="137.167" cy="66.5" r="2.5" fill="white"/>-->
<!--        <path d="M142.219 72.75C142.731 73.13 143.001 73.5612 143.001 74C143.001 74.4388 142.731 74.87 142.219 75.25C141.707 75.63 140.971 75.9456 140.084 76.1651C139.197 76.3845 138.191 76.5 137.167 76.5C136.143 76.5 135.137 76.3845 134.251 76.1651C133.364 75.9456 132.627 75.63 132.116 75.25C131.604 74.87 131.334 74.4388 131.334 74C131.334 73.5612 131.604 73.13 132.116 72.75"-->
<!--              stroke="#12C13E" stroke-width="2" stroke-linecap="round"/>-->
<!--    </g>-->
<!--    <g id="quadrant">-->
<!--        <path d="M65.8337 78.0658C65.8337 82.1727 61.7162 84.6726 60.3999 85.3669C60.1479 85.4998 59.8527 85.4998 59.6008 85.3669C58.2844 84.6726 54.167 82.1727 54.167 78.0658C54.167 74.8441 56.7787 72.2324 60.0003 72.2324C63.222 72.2324 65.8337 74.8441 65.8337 78.0658Z"-->
<!--              fill="#FDCA05"/>-->
<!--        <circle cx="60" cy="78.0659" r="2.5" fill="white"/>-->
<!--        <path d="M65.0521 84.3159C65.5641 84.696 65.8337 85.1271 65.8337 85.5659C65.8337 86.0048 65.5641 86.4359 65.0521 86.8159C64.5402 87.196 63.8038 87.5116 62.917 87.731C62.0302 87.9504 61.0243 88.0659 60.0003 88.0659C58.9764 88.0659 57.9704 87.9504 57.0837 87.731C56.1969 87.5116 55.4605 87.196 54.9485 86.8159C54.4365 86.4359 54.167 86.0048 54.167 85.5659C54.167 85.1271 54.4365 84.696 54.9485 84.3159"-->
<!--              stroke="#12C13E" stroke-width="2" stroke-linecap="round"/>-->
<!--    </g>-->
<!--    <g id="quadrant">-->
<!--        <path d="M75.8337 65.5658C75.8337 69.6727 71.7162 72.1726 70.3999 72.8669C70.1479 72.9998 69.8527 72.9998 69.6008 72.8669C68.2844 72.1726 64.167 69.6727 64.167 65.5658C64.167 62.3441 66.7787 59.7324 70.0003 59.7324C73.222 59.7324 75.8337 62.3441 75.8337 65.5658Z"-->
<!--              fill="#FDCA05"/>-->
<!--        <circle cx="70" cy="65.5659" r="2.5" fill="white"/>-->
<!--        <path d="M75.0521 71.8159C75.5641 72.196 75.8337 72.6271 75.8337 73.0659C75.8337 73.5048 75.5641 73.9359 75.0521 74.3159C74.5402 74.696 73.8038 75.0116 72.917 75.231C72.0302 75.4504 71.0243 75.5659 70.0003 75.5659C68.9764 75.5659 67.9704 75.4504 67.0837 75.231C66.1969 75.0116 65.4605 74.696 64.9485 74.3159C64.4365 73.9359 64.167 73.5048 64.167 73.0659C64.167 72.6271 64.4365 72.196 64.9485 71.8159"-->
<!--              stroke="#12C13E" stroke-width="2" stroke-linecap="round"/>-->
<!--    </g>-->
<!--    <g id="quadrant">-->
<!--        <path d="M53.3337 72.9666C53.3337 77.0735 49.2162 79.5735 47.8999 80.2678C47.6479 80.4007 47.3527 80.4007 47.1008 80.2678C45.7844 79.5735 41.667 77.0735 41.667 72.9666C41.667 69.745 44.2787 67.1333 47.5003 67.1333C50.722 67.1333 53.3337 69.745 53.3337 72.9666Z"-->
<!--              fill="#FDCA05"/>-->
<!--        <circle cx="47.5" cy="72.9668" r="2.5" fill="white"/>-->
<!--        <path d="M52.5521 79.2168C53.0641 79.5968 53.3337 80.028 53.3337 80.4668C53.3337 80.9056 53.0641 81.3367 52.5521 81.7168C52.0402 82.0968 51.3038 82.4124 50.417 82.6319C49.5302 82.8513 48.5243 82.9668 47.5003 82.9668C46.4764 82.9668 45.4704 82.8513 44.5837 82.6319C43.6969 82.4124 42.9605 82.0968 42.4485 81.7168C41.9365 81.3367 41.667 80.9056 41.667 80.4668C41.667 80.028 41.9365 79.5968 42.4485 79.2168"-->
<!--              stroke="#12C13E" stroke-width="2" stroke-linecap="round"/>-->
<!--    </g>-->
<!--    <g id="quadrant">-->
<!--        <path d="M75.8337 48.4998C75.8337 52.6067 71.7162 55.1067 70.3999 55.801C70.1479 55.9339 69.8527 55.9339 69.6008 55.801C68.2844 55.1067 64.167 52.6067 64.167 48.4998C64.167 45.2782 66.7787 42.6665 70.0003 42.6665C73.222 42.6665 75.8337 45.2782 75.8337 48.4998Z"-->
<!--              fill="#FDCA05"/>-->
<!--        <circle cx="70" cy="48.5" r="2.5" fill="white"/>-->
<!--        <path d="M75.0521 54.75C75.5641 55.13 75.8337 55.5612 75.8337 56C75.8337 56.4388 75.5641 56.87 75.0521 57.25C74.5402 57.63 73.8038 57.9456 72.917 58.1651C72.0302 58.3845 71.0243 58.5 70.0003 58.5C68.9764 58.5 67.9704 58.3845 67.0837 58.1651C66.1969 57.9456 65.4605 57.63 64.9485 57.25C64.4365 56.87 64.167 56.4388 64.167 56C64.167 55.5612 64.4365 55.13 64.9485 54.75"-->
<!--              stroke="#12C13E" stroke-width="2" stroke-linecap="round"/>-->
<!--    </g>-->
<!--    <g id="quadrant">-->
<!--        <path d="M252.002 203.025C252.002 207.132 247.884 209.632 246.568 210.326C246.316 210.459 246.021 210.459 245.769 210.326C244.452 209.632 240.335 207.132 240.335 203.025C240.335 199.804 242.947 197.192 246.168 197.192C249.39 197.192 252.002 199.804 252.002 203.025Z"-->
<!--              fill="#FDCA05"/>-->
<!--        <circle cx="246.168" cy="203.025" r="2.5" fill="white"/>-->
<!--        <path d="M251.22 209.275C251.732 209.655 252.002 210.087 252.002 210.525C252.002 210.964 251.732 211.395 251.22 211.775C250.708 212.155 249.972 212.471 249.085 212.69C248.198 212.91 247.192 213.025 246.168 213.025C245.144 213.025 244.138 212.91 243.252 212.69C242.365 212.471 241.628 212.155 241.116 211.775C240.604 211.395 240.335 210.964 240.335 210.525C240.335 210.087 240.604 209.655 241.116 209.275"-->
<!--              stroke="#12C13E" stroke-width="2" stroke-linecap="round"/>-->
<!--    </g>-->
<!--    <g id="quadrant">-->
<!--        <path d="M138.834 103.585C138.834 107.692 134.716 110.192 133.4 110.886C133.148 111.019 132.853 111.019 132.601 110.886C131.284 110.192 127.167 107.692 127.167 103.585C127.167 100.364 129.779 97.752 133 97.752C136.222 97.752 138.834 100.364 138.834 103.585Z"-->
<!--              fill="#FDCA05"/>-->
<!--        <circle cx="133" cy="103.585" r="2.5" fill="white"/>-->
<!--        <path d="M138.052 109.835C138.564 110.215 138.834 110.647 138.834 111.085C138.834 111.524 138.564 111.955 138.052 112.335C137.54 112.715 136.804 113.031 135.917 113.251C135.03 113.47 134.024 113.585 133 113.585C131.976 113.585 130.97 113.47 130.084 113.251C129.197 113.031 128.46 112.715 127.949 112.335C127.437 111.955 127.167 111.524 127.167 111.085C127.167 110.647 127.437 110.215 127.949 109.835"-->
<!--              stroke="#12C13E" stroke-width="2" stroke-linecap="round"/>-->

<!--    </g>-->
<!--    <g id="quadrant">-->
<!--        <path d="M251.834 159.23C251.834 163.337 247.716 165.837 246.4 166.531C246.148 166.664 245.853 166.664 245.601 166.531C244.284 165.837 240.167 163.337 240.167 159.23C240.167 156.009 242.779 153.397 246 153.397C249.222 153.397 251.834 156.009 251.834 159.23Z"-->
<!--              fill="#FDCA05"/>-->
<!--        <circle cx="246" cy="159.23" r="2.5" fill="white"/>-->
<!--        <path d="M251.052 165.48C251.564 165.861 251.834 166.292 251.834 166.73C251.834 167.169 251.564 167.6 251.052 167.98C250.54 168.361 249.804 168.676 248.917 168.896C248.03 169.115 247.024 169.23 246 169.23C244.976 169.23 243.97 169.115 243.084 168.896C242.197 168.676 241.46 168.361 240.949 167.98C240.437 167.6 240.167 167.169 240.167 166.73C240.167 166.292 240.437 165.861 240.949 165.48"-->
<!--              stroke="#12C13E" stroke-width="2" stroke-linecap="round"/>-->
<!--    </g>-->
<!--    <g id="quadrant">-->
<!--        <path d="M124.342 251.009C124.342 255.116 120.225 257.616 118.909 258.31C118.657 258.443 118.362 258.443 118.11 258.31C116.793 257.616 112.676 255.116 112.676 251.009C112.676 247.787 115.287 245.176 118.509 245.176C121.731 245.176 124.342 247.787 124.342 251.009Z"-->
<!--              fill="#FDCA05"/>-->
<!--        <circle cx="118.509" cy="251.009" r="2.5" fill="white"/>-->
<!--        <path d="M123.561 257.259C124.073 257.639 124.342 258.07 124.342 258.509C124.342 258.948 124.073 259.379 123.561 259.759C123.049 260.139 122.313 260.455 121.426 260.674C120.539 260.894 119.533 261.009 118.509 261.009C117.485 261.009 116.479 260.894 115.592 260.674C114.706 260.455 113.969 260.139 113.457 259.759C112.945 259.379 112.676 258.948 112.676 258.509C112.676 258.07 112.945 257.639 113.457 257.259"-->
<!--              stroke="#12C13E" stroke-width="2" stroke-linecap="round"/>-->
<!--    </g>-->
<!--    <g id="quadrant">-->
<!--        <path d="M196.834 180.525C196.834 184.632 192.716 187.132 191.4 187.826C191.148 187.959 190.853 187.959 190.601 187.826C189.284 187.132 185.167 184.632 185.167 180.525C185.167 177.304 187.779 174.692 191 174.692C194.222 174.692 196.834 177.304 196.834 180.525Z"-->
<!--              fill="#FDCA05"/>-->
<!--        <circle cx="191" cy="180.525" r="2.5" fill="white"/>-->
<!--        <path d="M196.052 186.775C196.564 187.155 196.834 187.587 196.834 188.025C196.834 188.464 196.564 188.895 196.052 189.275C195.54 189.655 194.804 189.971 193.917 190.19C193.03 190.41 192.024 190.525 191 190.525C189.976 190.525 188.97 190.41 188.084 190.19C187.197 189.971 186.46 189.655 185.949 189.275C185.437 188.895 185.167 188.464 185.167 188.025C185.167 187.587 185.437 187.155 185.949 186.775"-->
<!--              stroke="#12C13E" stroke-width="2" stroke-linecap="round"/>-->

<!--    </g>-->
<!--    <g id="quadrant">-->
<!--        <path-->
<!--                d="M224.911 166.73C224.911 170.837 220.793 173.337 219.477 174.031C219.225 174.164 218.93 174.164 218.678 174.031C217.362 173.337 213.244 170.837 213.244 166.73C213.244 163.509 215.856 160.897 219.077 160.897C222.299 160.897 224.911 163.509 224.911 166.73Z"-->
<!--                fill="#FDCA05"/>-->
<!--        <circle cx="219.077" cy="166.73" r="2.5" fill="white"/>-->
<!--        <path-->
<!--                d="M224.129 172.98C224.641 173.361 224.911 173.792 224.911 174.23C224.911 174.669 224.641 175.1 224.129 175.48C223.617 175.861 222.881 176.176 221.994 176.396C221.107 176.615 220.101 176.73 219.077 176.73C218.054 176.73 217.048 176.615 216.161 176.396C215.274 176.176 214.538 175.861 214.026 175.48C213.514 175.1 213.244 174.669 213.244 174.23C213.244 173.792 213.514 173.361 214.026 172.98"-->
<!--                stroke="#12C13E" stroke-width="2" stroke-linecap="round"/>-->
<!--    </g>-->
<!--    <g id="quadrant">-->
<!--        <path-->
<!--                d="M126.427 121.134C126.427 125.241 122.31 127.74 120.994 128.435C120.742 128.568 120.446 128.568 120.195 128.435C118.878 127.74 114.761 125.241 114.761 121.134C114.761 117.912 117.372 115.3 120.594 115.3C123.816 115.3 126.427 117.912 126.427 121.134Z"-->
<!--                fill="#FDCA05"/>-->
<!--        <circle cx="120.594" cy="121.134" r="2.5" fill="white"/>-->
<!--        <path-->
<!--                d="M125.646 127.384C126.158 127.764 126.427 128.195 126.427 128.634C126.427 129.073 126.158 129.504 125.646 129.884C125.134 130.264 124.398 130.579 123.511 130.799C122.624 131.018 121.618 131.134 120.594 131.134C119.57 131.134 118.564 131.018 117.677 130.799C116.791 130.579 116.054 130.264 115.542 129.884C115.03 129.504 114.761 129.073 114.761 128.634C114.761 128.195 115.03 127.764 115.542 127.384"-->
<!--                stroke="#12C13E" stroke-width="2" stroke-linecap="round"/>-->

<!--    </g>-->
<!--    <g id="quadrant">-->
<!--        <path-->
<!--                d="M112.389 145.451C112.389 149.558 108.272 152.058 106.956 152.753C106.704 152.886 106.408 152.886 106.156 152.753C104.84 152.058 100.723 149.558 100.723 145.451C100.723 142.23 103.334 139.618 106.556 139.618C109.778 139.618 112.389 142.23 112.389 145.451Z"-->
<!--                fill="#FDCA05"/>-->
<!--        <circle cx="106.556" cy="145.452" r="2.5" fill="white"/>-->
<!--        <path-->
<!--                d="M111.608 151.702C112.12 152.082 112.389 152.513 112.389 152.952C112.389 153.391 112.12 153.822 111.608 154.202C111.096 154.582 110.359 154.897 109.473 155.117C108.586 155.336 107.58 155.452 106.556 155.452C105.532 155.452 104.526 155.336 103.639 155.117C102.753 154.897 102.016 154.582 101.504 154.202C100.992 153.822 100.723 153.391 100.723 152.952C100.723 152.513 100.992 152.082 101.504 151.702"-->
<!--                stroke="#12C13E" stroke-width="2" stroke-linecap="round"/>-->
<!--    </g>-->
<!--    <g id="quadrant">-->
<!--        <path-->
<!--                d="M195.834 162.213C195.834 166.32 191.716 168.82 190.4 169.514C190.148 169.647 189.853 169.647 189.601 169.514C188.284 168.82 184.167 166.32 184.167 162.213C184.167 158.992 186.779 156.38 190 156.38C193.222 156.38 195.834 158.992 195.834 162.213Z"-->
<!--                fill="#FDCA05"/>-->
<!--        <circle cx="190" cy="162.213" r="2.5" fill="white"/>-->
<!--        <path-->
<!--                d="M195.052 168.463C195.564 168.843 195.834 169.275 195.834 169.713C195.834 170.152 195.564 170.583 195.052 170.963C194.54 171.343 193.804 171.659 192.917 171.878C192.03 172.098 191.024 172.213 190 172.213C188.976 172.213 187.97 172.098 187.084 171.878C186.197 171.659 185.46 171.343 184.949 170.963C184.437 170.583 184.167 170.152 184.167 169.713C184.167 169.275 184.437 168.843 184.949 168.463"-->
<!--                stroke="#12C13E" stroke-width="2" stroke-linecap="round"/>-->

<!--    </g>-->
<!--    <g id="quadrant">-->
<!--        <path-->
<!--                d="M155.12 188.025C155.12 192.132 151.002 194.632 149.686 195.326C149.434 195.459 149.139 195.459 148.887 195.326C147.571 194.632 143.453 192.132 143.453 188.025C143.453 184.804 146.065 182.192 149.286 182.192C152.508 182.192 155.12 184.804 155.12 188.025Z"-->
<!--                fill="#FDCA05"/>-->
<!--        <circle cx="149.286" cy="188.025" r="2.5" fill="white"/>-->
<!--        <path-->
<!--                d="M154.338 194.275C154.85 194.655 155.12 195.087 155.12 195.525C155.12 195.964 154.85 196.395 154.338 196.775C153.826 197.155 153.09 197.471 152.203 197.69C151.316 197.91 150.31 198.025 149.286 198.025C148.262 198.025 147.257 197.91 146.37 197.69C145.483 197.471 144.747 197.155 144.235 196.775C143.723 196.395 143.453 195.964 143.453 195.525C143.453 195.087 143.723 194.655 144.235 194.275"-->
<!--                stroke="#12C13E" stroke-width="2" stroke-linecap="round"/>-->
<!--    </g>-->
<!--    <g id="quadrant">-->
<!--        <path-->
<!--                d="M193.325 228.028C193.325 232.135 189.207 234.635 187.891 235.329C187.639 235.462 187.344 235.462 187.092 235.329C185.776 234.635 181.658 232.135 181.658 228.028C181.658 224.806 184.27 222.195 187.492 222.195C190.713 222.195 193.325 224.806 193.325 228.028Z"-->
<!--                fill="#FDCA05"/>-->
<!--        <circle cx="187.491" cy="228.028" r="2.5" fill="white"/>-->
<!--        <path-->
<!--                d="M192.543 234.278C193.055 234.658 193.325 235.089 193.325 235.528C193.325 235.967 193.055 236.398 192.543 236.778C192.031 237.158 191.295 237.474 190.408 237.693C189.521 237.913 188.516 238.028 187.492 238.028C186.468 238.028 185.462 237.913 184.575 237.693C183.688 237.474 182.952 237.158 182.44 236.778C181.928 236.398 181.658 235.967 181.658 235.528C181.658 235.089 181.928 234.658 182.44 234.278"-->
<!--                stroke="#12C13E" stroke-width="2" stroke-linecap="round"/>-->

<!--    </g>-->
<!--    <g id="quadrant">-->
<!--        <path-->
<!--                d="M173.834 248.509C173.834 252.616 169.716 255.116 168.4 255.81C168.148 255.943 167.853 255.943 167.601 255.81C166.284 255.116 162.167 252.616 162.167 248.509C162.167 245.287 164.779 242.676 168 242.676C171.222 242.676 173.834 245.287 173.834 248.509Z"-->
<!--                fill="#FDCA05"/>-->
<!--        <circle cx="168" cy="248.509" r="2.5" fill="white"/>-->
<!--        <path-->
<!--                d="M173.052 254.759C173.564 255.139 173.834 255.57 173.834 256.009C173.834 256.448 173.564 256.879 173.052 257.259C172.54 257.639 171.804 257.955 170.917 258.174C170.03 258.394 169.024 258.509 168 258.509C166.976 258.509 165.97 258.394 165.084 258.174C164.197 257.955 163.46 257.639 162.949 257.259C162.437 256.879 162.167 256.448 162.167 256.009C162.167 255.57 162.437 255.139 162.949 254.759"-->
<!--                stroke="#12C13E" stroke-width="2" stroke-linecap="round"/>-->
<!--    </g>-->
<!--    <g id="quadrant">-->
<!--        <path-->
<!--                d="M81.6676 197.5C81.6676 201.607 77.5502 204.107 76.2338 204.801C75.9819 204.934 75.6867 204.934 75.4348 204.801C74.1184 204.107 70.001 201.607 70.001 197.5C70.001 194.278 72.6126 191.667 75.8343 191.667C79.056 191.667 81.6676 194.278 81.6676 197.5Z"-->
<!--                fill="#FDCA05"/>-->
<!--        <circle cx="75.834" cy="197.5" r="2.5" fill="white"/>-->
<!--        <path-->
<!--                d="M80.8861 203.75C81.3981 204.13 81.6676 204.561 81.6676 205C81.6676 205.439 81.3981 205.87 80.8861 206.25C80.3741 206.63 79.6378 206.946 78.751 207.165C77.8642 207.384 76.8583 207.5 75.8343 207.5C74.8103 207.5 73.8044 207.384 72.9176 207.165C72.0309 206.946 71.2945 206.63 70.7825 206.25C70.2705 205.87 70.001 205.439 70.001 205C70.001 204.561 70.2705 204.13 70.7825 203.75"-->
<!--                stroke="#12C13E" stroke-width="2" stroke-linecap="round"/>-->
<!--    </g>-->
<!--    <g id="quadrant">-->
<!--        <path-->
<!--                d="M97.5016 204.692C97.5016 208.799 93.3842 211.299 92.0678 211.993C91.8159 212.126 91.5207 212.126 91.2688 211.993C89.9524 211.299 85.835 208.799 85.835 204.692C85.835 201.47 88.4466 198.858 91.6683 198.858C94.89 198.858 97.5016 201.47 97.5016 204.692Z"-->
<!--                fill="#FDCA05"/>-->
<!--        <circle cx="91.668" cy="204.692" r="2.5" fill="white"/>-->
<!--        <path-->
<!--                d="M96.7201 210.942C97.2321 211.322 97.5016 211.753 97.5016 212.192C97.5016 212.631 97.2321 213.062 96.7201 213.442C96.2081 213.822 95.4717 214.138 94.585 214.357C93.6982 214.576 92.6923 214.692 91.6683 214.692C90.6443 214.692 89.6384 214.576 88.7516 214.357C87.8648 214.138 87.1285 213.822 86.6165 213.442C86.1045 213.062 85.835 212.631 85.835 212.192C85.835 211.753 86.1045 211.322 86.6165 210.942"-->
<!--                stroke="#12C13E" stroke-width="2" stroke-linecap="round"/>-->
<!--    </g>-->
<!--    <g id="quadrant">-->
<!--        <path-->
<!--                d="M173.325 174.131C173.325 178.238 169.207 180.738 167.891 181.432C167.639 181.565 167.344 181.565 167.092 181.432C165.776 180.738 161.658 178.238 161.658 174.131C161.658 170.91 164.27 168.298 167.492 168.298C170.713 168.298 173.325 170.91 173.325 174.131Z"-->
<!--                fill="#FDCA05"/>-->
<!--        <circle cx="167.491" cy="174.131" r="2.5" fill="white"/>-->
<!--        <path-->
<!--                d="M172.543 180.381C173.055 180.761 173.325 181.193 173.325 181.631C173.325 182.07 173.055 182.501 172.543 182.881C172.031 183.261 171.295 183.577 170.408 183.796C169.521 184.016 168.516 184.131 167.492 184.131C166.468 184.131 165.462 184.016 164.575 183.796C163.688 183.577 162.952 183.261 162.44 182.881C161.928 182.501 161.658 182.07 161.658 181.631C161.658 181.193 161.928 180.761 162.44 180.381"-->
<!--                stroke="#12C13E" stroke-width="2" stroke-linecap="round"/>-->
<!--    </g>-->
<!--    <g id="quadrant">-->
<!--        <path-->
<!--                d="M172.668 187.5C172.668 191.607 168.55 194.107 167.234 194.801C166.982 194.934 166.687 194.934 166.435 194.801C165.118 194.107 161.001 191.607 161.001 187.5C161.001 184.278 163.613 181.667 166.834 181.667C170.056 181.667 172.668 184.278 172.668 187.5Z"-->
<!--                fill="#FDCA05"/>-->
<!--        <circle cx="166.834" cy="187.5" r="2.5" fill="white"/>-->
<!--        <path-->
<!--                d="M171.886 193.75C172.398 194.13 172.668 194.561 172.668 195C172.668 195.439 172.398 195.87 171.886 196.25C171.374 196.63 170.638 196.946 169.751 197.165C168.864 197.384 167.858 197.5 166.834 197.5C165.81 197.5 164.804 197.384 163.918 197.165C163.031 196.946 162.294 196.63 161.782 196.25C161.271 195.87 161.001 195.439 161.001 195C161.001 194.561 161.271 194.13 161.782 193.75"-->
<!--                stroke="#12C13E" stroke-width="2" stroke-linecap="round"/>-->
<!--    </g>-->
<!--    <g id="quadrant">-->
<!--        <path-->
<!--                d="M163.834 217.5C163.834 221.607 159.716 224.107 158.4 224.801C158.148 224.934 157.853 224.934 157.601 224.801C156.284 224.107 152.167 221.607 152.167 217.5C152.167 214.278 154.779 211.667 158 211.667C161.222 211.667 163.834 214.278 163.834 217.5Z"-->
<!--                fill="#FDCA05"/>-->
<!--        <circle cx="158" cy="217.5" r="2.5" fill="white"/>-->
<!--        <path-->
<!--                d="M163.052 223.75C163.564 224.13 163.834 224.561 163.834 225C163.834 225.439 163.564 225.87 163.052 226.25C162.54 226.63 161.804 226.946 160.917 227.165C160.03 227.384 159.024 227.5 158 227.5C156.976 227.5 155.97 227.384 155.084 227.165C154.197 226.946 153.46 226.63 152.949 226.25C152.437 225.87 152.167 225.439 152.167 225C152.167 224.561 152.437 224.13 152.949 223.75"-->
<!--                stroke="#12C13E" stroke-width="2" stroke-linecap="round"/>-->
<!--    </g>-->
<!--    <g id="quadrant">-->
<!--        <path-->
<!--                d="M156.834 244.037C156.834 248.144 152.716 250.644 151.4 251.339C151.148 251.471 150.853 251.471 150.601 251.339C149.284 250.644 145.167 248.144 145.167 244.037C145.167 240.816 147.779 238.204 151 238.204C154.222 238.204 156.834 240.816 156.834 244.037Z"-->
<!--                fill="#FDCA05"/>-->
<!--        <circle cx="151" cy="244.038" r="2.5" fill="white"/>-->
<!--        <path-->
<!--                d="M156.052 250.288C156.564 250.668 156.834 251.099 156.834 251.538C156.834 251.976 156.564 252.408 156.052 252.788C155.54 253.168 154.804 253.483 153.917 253.703C153.03 253.922 152.024 254.038 151 254.038C149.976 254.038 148.97 253.922 148.084 253.703C147.197 253.483 146.46 253.168 145.949 252.788C145.437 252.408 145.167 251.976 145.167 251.538C145.167 251.099 145.437 250.668 145.949 250.288"-->
<!--                stroke="#12C13E" stroke-width="2" stroke-linecap="round"/>-->
<!--    </g>-->
<!--    <g id="quadrant">-->
<!--        <path-->
<!--                d="M125.842 223.5C125.842 227.607 121.725 230.107 120.409 230.801C120.157 230.934 119.862 230.934 119.61 230.801C118.293 230.107 114.176 227.607 114.176 223.5C114.176 220.278 116.787 217.667 120.009 217.667C123.231 217.667 125.842 220.278 125.842 223.5Z"-->
<!--                fill="#FDCA05"/>-->
<!--        <circle cx="120.009" cy="223.5" r="2.5" fill="white"/>-->
<!--        <path-->
<!--                d="M125.061 229.75C125.573 230.13 125.842 230.561 125.842 231C125.842 231.439 125.573 231.87 125.061 232.25C124.549 232.63 123.813 232.946 122.926 233.165C122.039 233.384 121.033 233.5 120.009 233.5C118.985 233.5 117.979 233.384 117.092 233.165C116.206 232.946 115.469 232.63 114.957 232.25C114.445 231.87 114.176 231.439 114.176 231C114.176 230.561 114.445 230.13 114.957 229.75"-->
<!--                stroke="#12C13E" stroke-width="2" stroke-linecap="round"/>-->
<!--    </g>-->
<!--    <g id="quadrant">-->
<!--        <path-->
<!--                d="M141.834 194.131C141.834 198.238 137.716 200.738 136.4 201.432C136.148 201.565 135.853 201.565 135.601 201.432C134.284 200.738 130.167 198.238 130.167 194.131C130.167 190.91 132.779 188.298 136 188.298C139.222 188.298 141.834 190.91 141.834 194.131Z"-->
<!--                fill="#FDCA05"/>-->
<!--        <circle cx="136" cy="194.131" r="2.5" fill="white"/>-->
<!--        <path-->
<!--                d="M141.052 200.381C141.564 200.761 141.834 201.193 141.834 201.631C141.834 202.07 141.564 202.501 141.052 202.881C140.54 203.261 139.804 203.577 138.917 203.796C138.03 204.016 137.024 204.131 136 204.131C134.976 204.131 133.97 204.016 133.084 203.796C132.197 203.577 131.46 203.261 130.949 202.881C130.437 202.501 130.167 202.07 130.167 201.631C130.167 201.193 130.437 200.761 130.949 200.381"-->
<!--                stroke="#12C13E" stroke-width="2" stroke-linecap="round"/>-->

<!--    </g>-->
<!--    <g id="quadrant">-->
<!--        <path-->
<!--                d="M147.842 220.528C147.842 224.635 143.725 227.135 142.409 227.829C142.157 227.962 141.862 227.962 141.61 227.829C140.293 227.135 136.176 224.635 136.176 220.528C136.176 217.306 138.787 214.695 142.009 214.695C145.231 214.695 147.842 217.306 147.842 220.528Z"-->
<!--                fill="#FDCA05"/>-->
<!--        <circle cx="142.009" cy="220.528" r="2.5" fill="white"/>-->
<!--        <path-->
<!--                d="M147.061 226.778C147.573 227.158 147.842 227.589 147.842 228.028C147.842 228.467 147.573 228.898 147.061 229.278C146.549 229.658 145.813 229.974 144.926 230.193C144.039 230.413 143.033 230.528 142.009 230.528C140.985 230.528 139.979 230.413 139.092 230.193C138.206 229.974 137.469 229.658 136.957 229.278C136.445 228.898 136.176 228.467 136.176 228.028C136.176 227.589 136.445 227.158 136.957 226.778"-->
<!--                stroke="#12C13E" stroke-width="2" stroke-linecap="round"/>-->
<!--    </g>-->
<!--    <g id="quadrant">-->
<!--        <path-->
<!--                d="M153.834 203.5C153.834 207.607 149.716 210.107 148.4 210.801C148.148 210.934 147.853 210.934 147.601 210.801C146.284 210.107 142.167 207.607 142.167 203.5C142.167 200.278 144.779 197.667 148 197.667C151.222 197.667 153.834 200.278 153.834 203.5Z"-->
<!--                fill="#FDCA05"/>-->
<!--        <circle cx="148" cy="203.5" r="2.5" fill="white"/>-->
<!--        <path-->
<!--                d="M153.052 209.75C153.564 210.13 153.834 210.561 153.834 211C153.834 211.439 153.564 211.87 153.052 212.25C152.54 212.63 151.804 212.946 150.917 213.165C150.03 213.384 149.024 213.5 148 213.5C146.976 213.5 145.97 213.384 145.084 213.165C144.197 212.946 143.46 212.63 142.949 212.25C142.437 211.87 142.167 211.439 142.167 211C142.167 210.561 142.437 210.13 142.949 209.75"-->
<!--                stroke="#12C13E" stroke-width="2" stroke-linecap="round"/>-->
<!--    </g>-->
<!--    <g id="quadrant">-->
<!--        <path-->
<!--                d="M135.12 211.631C135.12 215.738 131.002 218.238 129.686 218.932C129.434 219.065 129.139 219.065 128.887 218.932C127.571 218.238 123.453 215.738 123.453 211.631C123.453 208.41 126.065 205.798 129.286 205.798C132.508 205.798 135.12 208.41 135.12 211.631Z"-->
<!--                fill="#FDCA05"/>-->
<!--        <circle cx="129.286" cy="211.631" r="2.5" fill="white"/>-->
<!--        <path-->
<!--                d="M134.338 217.881C134.85 218.261 135.12 218.693 135.12 219.131C135.12 219.57 134.85 220.001 134.338 220.381C133.826 220.761 133.09 221.077 132.203 221.296C131.316 221.516 130.31 221.631 129.286 221.631C128.262 221.631 127.257 221.516 126.37 221.296C125.483 221.077 124.747 220.761 124.235 220.381C123.723 220.001 123.453 219.57 123.453 219.131C123.453 218.693 123.723 218.261 124.235 217.881"-->
<!--                stroke="#12C13E" stroke-width="2" stroke-linecap="round"/>-->
<!--    </g>-->
</svg>
