<svg width="24" height="24" viewBox="0 0 24 24" fill="none" xmlns="http://www.w3.org/2000/svg">
<path d="M10.8574 9.68738H16.0001C16.8286 9.68738 17.5001 10.359 17.5001 11.1874V18.9999C17.5001 19.8283 16.8286 20.4999 16.0001 20.4999H10.8574C10.029 20.4999 9.35742 19.8283 9.35742 18.9999V11.1874C9.35742 10.359 10.029 9.68738 10.8574 9.68738Z" stroke="#989998"/>
<path d="M11.1426 9.46863V8.49988C11.1426 7.94759 11.5903 7.49988 12.1426 7.49988H14.7139C15.2662 7.49988 15.7139 7.94759 15.7139 8.49988V9.46863" stroke="#989998"/>
<path d="M16.8578 3.77885C16.8578 4.20877 16.4892 4.55769 16.035 4.55769H8.21795V5.72596C8.21795 5.94131 8.03405 6.11538 7.80653 6.11538H6.98369C6.75617 6.11538 6.57227 5.94131 6.57227 5.72596V4.55769C6.57227 3.69746 7.30912 3 8.21795 3H16.035C16.4892 3 16.8578 3.34892 16.8578 3.77885Z" stroke="#989998" stroke-miterlimit="10"/>
<path d="M7.14284 7.49988L8.0814 8.82653C8.20997 9.0085 8.28568 9.22985 8.28568 9.46863C8.28568 10.0899 7.77397 10.5936 7.14284 10.5936C6.51171 10.5936 6 10.0899 6 9.46863C6 9.22985 6.07543 9.0085 6.20428 8.82653L7.14284 7.49988Z" stroke="#989998" stroke-miterlimit="10"/>
<path d="M12.5723 4.6875V7.5M14.2865 4.6875V7.5" stroke="#989998"/>
</svg>
