<svg width="6" height="10" viewBox="0 0 6 10" fill="none" xmlns="http://www.w3.org/2000/svg">
<path d="M0.646447 1.35355C0.451184 1.15829 0.451184 0.841709 0.646447 0.646447C0.841709 0.451184 1.15829 0.451184 1.35355 0.646447L0.646447 1.35355ZM4.64645 4.64645L5 4.29289H5L4.64645 4.64645ZM4.64645 5.35355L4.29289 5L4.29289 5L4.64645 5.35355ZM1.35355 9.35355C1.15829 9.54882 0.841709 9.54882 0.646447 9.35355C0.451184 9.15829 0.451184 8.84171 0.646447 8.64645L1.35355 9.35355ZM1.35355 0.646447L5 4.29289L4.29289 5L0.646447 1.35355L1.35355 0.646447ZM5 5.70711L1.35355 9.35355L0.646447 8.64645L4.29289 5L5 5.70711ZM5 4.29289C5.39052 4.68342 5.39052 5.31658 5 5.70711L4.29289 5L4.29289 5L5 4.29289Z" fill="#A8AEBC"/>
</svg>
