<svg width="30" height="30" viewBox="0 0 30 30" fill="none" xmlns="http://www.w3.org/2000/svg">
<path d="M2 3.25C1.58579 3.25 1.25 3.58579 1.25 4C1.25 4.41421 1.58579 4.75 2 4.75V3.25ZM26.3674 13.7578L25.6458 13.5532L26.3674 13.7578ZM2 4.75H3.8596V3.25H2V4.75ZM13.7409 17.4167H22.5191V15.9167H13.7409V17.4167ZM27.089 13.9624L27.278 13.2958L25.8349 12.8866L25.6458 13.5532L27.089 13.9624ZM8.00261 8.05235L8.02888 8.16723L9.49112 7.83277L9.46484 7.71789L8.00261 8.05235ZM8.02375 8.14296L9.07797 13.5721L10.5505 13.2862L9.49625 7.85704L8.02375 8.14296ZM22.7081 7.25H8.76V8.75H22.7081V7.25ZM27.278 13.2958C28.1378 10.2635 25.86 7.25 22.7081 7.25V8.75C24.8647 8.75 26.4232 10.8118 25.8349 12.8866L27.278 13.2958ZM22.5191 17.4167C24.6434 17.4167 26.5095 16.0062 27.089 13.9624L25.6458 13.5532C25.2493 14.9516 23.9726 15.9167 22.5191 15.9167V17.4167ZM13.7409 15.9167C12.1848 15.9167 10.8471 14.8137 10.5505 13.2862L9.07797 13.5721C9.51148 15.8046 11.4666 17.4167 13.7409 17.4167V15.9167ZM3.8596 4.75C5.84171 4.75 7.56064 6.12015 8.00261 8.05235L9.46484 7.71789C8.86689 5.10373 6.54128 3.25 3.8596 3.25V4.75Z" fill="#4C4D4C"/>
<circle cx="12.3337" cy="22.3337" r="2.91667" stroke="#4C4D4C" stroke-width="1.5"/>
<circle cx="23.6667" cy="22.3337" r="2.91667" stroke="#4C4D4C" stroke-width="1.5"/>
</svg>
