<svg width="24" height="24" viewBox="0 0 24 24" fill="none" xmlns="http://www.w3.org/2000/svg">
<path d="M5.32698 6.63803L5.77248 6.86502L5.32698 6.63803ZM5.7682 18.2318L6.12175 18.5854H6.12175L5.7682 18.2318ZM18.362 15.673L18.135 15.2275L18.362 15.673ZM19.673 14.362L19.2275 14.135L19.673 14.362ZM19.673 6.63803L19.2275 6.86502V6.86502L19.673 6.63803ZM18.362 5.32698L18.589 4.88148V4.88148L18.362 5.32698ZM6.63803 5.32698L6.86502 5.77248L6.63803 5.32698ZM7.70711 16.2929L8.06066 16.6464L7.70711 16.2929ZM5.5 9.8C5.5 8.95167 5.50039 8.34549 5.53921 7.87032C5.57756 7.40099 5.65089 7.10366 5.77248 6.86502L4.88148 6.41103C4.67609 6.81413 4.58593 7.25771 4.54253 7.78889C4.49961 8.31423 4.5 8.96817 4.5 9.8H5.5ZM5.5 11V9.8H4.5V11H5.5ZM4.5 11V16H5.5V11H4.5ZM4.5 16V17.9136H5.5V16H4.5ZM4.5 17.9136C4.5 18.76 5.52329 19.1838 6.12175 18.5854L5.41465 17.8782C5.41754 17.8753 5.42812 17.868 5.44323 17.8654C5.4556 17.8632 5.46421 17.8654 5.46913 17.8674C5.47406 17.8695 5.48164 17.874 5.48888 17.8843C5.49771 17.8968 5.5 17.9095 5.5 17.9136H4.5ZM6.12175 18.5854L8.06066 16.6464L7.35355 15.9393L5.41465 17.8782L6.12175 18.5854ZM15.2 15.5H8.41421V16.5H15.2V15.5ZM18.135 15.2275C17.8963 15.3491 17.599 15.4224 17.1297 15.4608C16.6545 15.4996 16.0483 15.5 15.2 15.5V16.5C16.0318 16.5 16.6858 16.5004 17.2111 16.4575C17.7423 16.4141 18.1859 16.3239 18.589 16.1185L18.135 15.2275ZM19.2275 14.135C18.9878 14.6054 18.6054 14.9878 18.135 15.2275L18.589 16.1185C19.2475 15.783 19.783 15.2475 20.1185 14.589L19.2275 14.135ZM19.5 11.2C19.5 12.0483 19.4996 12.6545 19.4608 13.1297C19.4224 13.599 19.3491 13.8963 19.2275 14.135L20.1185 14.589C20.3239 14.1859 20.4141 13.7423 20.4575 13.2111C20.5004 12.6858 20.5 12.0318 20.5 11.2H19.5ZM19.5 9.8V11.2H20.5V9.8H19.5ZM19.2275 6.86502C19.3491 7.10366 19.4224 7.40099 19.4608 7.87032C19.4996 8.34549 19.5 8.95167 19.5 9.8H20.5C20.5 8.96817 20.5004 8.31423 20.4575 7.78889C20.4141 7.25771 20.3239 6.81413 20.1185 6.41103L19.2275 6.86502ZM18.135 5.77248C18.6054 6.01217 18.9878 6.39462 19.2275 6.86502L20.1185 6.41103C19.783 5.75247 19.2475 5.21703 18.589 4.88148L18.135 5.77248ZM15.2 5.5C16.0483 5.5 16.6545 5.50039 17.1297 5.53921C17.599 5.57756 17.8963 5.65089 18.135 5.77248L18.589 4.88148C18.1859 4.67609 17.7423 4.58593 17.2111 4.54253C16.6858 4.49961 16.0318 4.5 15.2 4.5V5.5ZM9.8 5.5H15.2V4.5H9.8V5.5ZM6.86502 5.77248C7.10366 5.65089 7.40099 5.57756 7.87032 5.53921C8.34549 5.50039 8.95167 5.5 9.8 5.5V4.5C8.96817 4.5 8.31423 4.49961 7.78889 4.54253C7.25771 4.58593 6.81413 4.67609 6.41103 4.88148L6.86502 5.77248ZM5.77248 6.86502C6.01217 6.39462 6.39462 6.01217 6.86502 5.77248L6.41103 4.88148C5.75247 5.21703 5.21703 5.75247 4.88148 6.41103L5.77248 6.86502ZM8.06066 16.6464C8.15443 16.5527 8.28161 16.5 8.41421 16.5V15.5C8.01639 15.5 7.63486 15.658 7.35355 15.9393L8.06066 16.6464Z" fill="white"/>
<path d="M9 9L16 9" stroke="white" stroke-linecap="round" stroke-linejoin="round"/>
<path d="M9 12L14 12" stroke="white" stroke-linecap="round" stroke-linejoin="round"/>
</svg>
