<svg width="16" height="16" viewBox="0 0 16 16" fill="none" xmlns="http://www.w3.org/2000/svg">
<path fill-rule="evenodd" clip-rule="evenodd" d="M8 15.6668C8 15.6668 2 12.5278 2 6.3335C2 3.01983 4.68633 0.333496 8 0.333496C11.3137 0.333496 14 3.01983 14 6.3335C14 12.5278 8 15.6668 8 15.6668ZM8 1.00016C5.05933 1.00016 2.66667 3.39283 2.66667 6.3335C2.66667 11.2528 6.82067 14.1672 8.001 14.8958C9.18233 14.1702 13.3333 11.2685 13.3333 6.3335C13.3333 3.39283 10.9407 1.00016 8 1.00016ZM8 9.3335C6.343 9.3335 5 7.9905 5 6.3335C5 4.6765 6.343 3.3335 8 3.3335C9.657 3.3335 11 4.6765 11 6.3335C11 7.9905 9.657 9.3335 8 9.3335ZM8 4.00016C6.71133 4.00016 5.66667 5.04483 5.66667 6.3335C5.66667 7.62216 6.71133 8.66683 8 8.66683C9.28867 8.66683 10.3333 7.62216 10.3333 6.3335C10.3333 5.04483 9.28867 4.00016 8 4.00016Z" fill="#4C4D4C"/>
</svg>
