<svg width="28" height="28" viewBox="0 0 28 28" fill="none" xmlns="http://www.w3.org/2000/svg">
<path d="M5.14496 7.90167C5.55743 7.08679 6.36773 6.22486 7.6146 5.2902C7.86297 5.10403 8.18932 5.04676 8.47242 5.17404C10.0097 5.86519 11.3272 7.54069 11.9981 8.69356C12.2069 9.05241 12.1229 9.49828 11.8293 9.79186L10.4479 11.1733C10.1587 11.4625 10.0707 11.9012 10.2579 12.2649C11.6232 14.9168 14.0316 16.6423 15.4958 17.5058C15.9142 17.7525 16.4407 17.6267 16.7622 17.2627C18.3616 15.4525 19.3981 15.603 19.7516 15.9565L21.6578 17.8627C21.6912 17.8961 21.7279 17.9276 21.7652 17.9567C22.9538 18.8835 22.7476 19.8756 22.4907 20.2609C22.1468 20.9743 21.5889 21.8592 19.6044 22.8776C19.4458 22.959 19.266 22.9939 19.0886 22.9756C12.693 22.3171 7.46532 15.7734 5.66466 12.0435C5.06723 10.5992 4.89038 9.55016 5.06281 8.17654C5.07482 8.08091 5.10144 7.98766 5.14496 7.90167Z" stroke="#727372" stroke-width="1.5"/>
</svg>
