<svg width="22" height="22" viewBox="0 0 22 22" fill="none" xmlns="http://www.w3.org/2000/svg">
<path d="M3.13619 5.56485C3.50015 4.85435 4.20406 4.10352 5.28035 3.29086C5.52807 3.10383 5.85509 3.04624 6.13637 3.17751C7.45263 3.79176 8.58208 5.20843 9.18189 6.21747C9.39404 6.57437 9.30997 7.01997 9.01639 7.31355L7.89569 8.43425C7.60646 8.72348 7.5181 9.16236 7.70843 9.52443C8.90299 11.7968 10.955 13.2942 12.2501 14.069C12.6669 14.3184 13.1926 14.1903 13.5181 13.8299C14.9041 12.2951 15.803 12.4296 16.1125 12.7391L17.8013 14.4279C17.8348 14.4614 17.8714 14.4927 17.9086 14.5219C18.9582 15.3444 18.7752 16.2234 18.5473 16.5652C18.2432 17.1961 17.7507 17.9779 16.0088 18.8773C15.8504 18.9591 15.6704 18.994 15.4931 18.9752C9.82186 18.3725 5.18857 12.5705 3.59081 9.26087C3.0621 7.98271 2.90395 7.05281 3.05382 5.83971C3.06564 5.74406 3.09225 5.65063 3.13619 5.56485Z" stroke="white"/>
</svg>
