<svg width="60" height="61" viewBox="0 0 60 61" fill="none" xmlns="http://www.w3.org/2000/svg">
<path d="M58.4998 14.0315C58.3198 10.1315 55.2598 7.07147 51.4198 7.07147H8.39976C4.49976 7.07147 1.25977 10.3715 1.25977 14.2715V37.3715C1.25977 41.1515 4.31976 44.3915 8.03976 44.5715V50.6315C8.03976 52.0715 8.93976 53.4515 10.3198 54.0515C10.7398 54.2315 11.2798 54.3515 11.7598 54.3515C12.7798 54.3515 13.6798 53.9915 14.3998 53.3315L23.3398 44.5715H51.4198C55.3198 44.5715 58.5598 41.2715 58.5598 37.3715L58.4998 14.0315ZM55.4998 37.3715C55.4998 39.6515 53.5798 41.5715 51.3598 41.5715H22.0798L12.2998 51.1715C12.2398 51.2315 12.1198 51.3515 11.8198 51.3515C11.6998 51.3515 11.6398 51.3515 11.6398 51.3515L11.5798 51.2915C11.2798 51.1715 11.0998 50.9315 11.0998 50.6315V41.5715H8.45977C6.23977 41.5715 4.31976 39.5915 4.31976 37.3715V14.2715C4.31976 11.9915 6.23977 10.0715 8.45977 10.0715H51.4798C53.6998 10.0715 55.4998 11.8715 55.5598 14.0915V37.3715H55.4998Z" fill="white"/>
<path d="M24.7792 16.4915H11.6992C10.8592 16.4915 10.1992 17.1515 10.1992 17.9915C10.1992 18.8315 10.8592 19.4915 11.6992 19.4915H24.7792C25.6192 19.4915 26.2792 18.8315 26.2792 17.9915C26.2792 17.1515 25.6192 16.4915 24.7792 16.4915Z" fill="white"/>
<path d="M26.8792 23.1515H11.6992C10.8592 23.1515 10.1992 23.8115 10.1992 24.6515C10.1992 25.4915 10.8592 26.1515 11.6992 26.1515H26.8792C27.7192 26.1515 28.3792 25.4915 28.3792 24.6515C28.3792 23.8115 27.7192 23.1515 26.8792 23.1515Z" fill="white"/>
<path d="M11.6992 33.0515H29.0992C29.9392 33.0515 30.5992 32.3915 30.5992 31.5515C30.5992 30.7115 29.9392 30.0515 29.0992 30.0515H11.6992C10.8592 30.0515 10.1992 30.7115 10.1992 31.5515C10.1992 32.3915 10.8592 33.0515 11.6992 33.0515Z" fill="white"/>
<path d="M43.2001 29.8715H42.9601C42.1801 29.8715 41.5801 30.5315 41.5801 31.2515V31.7315C41.5801 32.5115 42.2401 33.1115 42.9601 33.1115H43.2001C43.9801 33.1115 44.5801 32.5115 44.5801 31.7315V31.2515C44.5801 30.4715 43.9201 29.8715 43.2001 29.8715Z" fill="white"/>
<path d="M45.7199 15.5915C44.9999 15.2915 44.1599 15.1115 43.2599 15.1115C42.0599 15.1115 41.0399 15.3515 40.1399 15.8915C39.4199 16.3115 38.8199 16.8515 38.3399 17.6315C38.2199 17.8715 38.0999 18.1115 37.9799 18.3515C37.5599 19.1915 38.1599 20.1514 39.1199 20.2115C39.6599 20.2115 40.1999 19.9115 40.4399 19.3715C40.4999 19.2515 40.5599 19.0715 40.6799 18.9515C41.1599 18.1715 41.9999 17.7515 43.1999 17.7515C44.2199 17.7515 44.8799 17.9915 45.3599 18.5315C45.6599 18.8915 45.7799 19.2515 45.7799 19.6715C45.7799 20.0915 45.5999 20.4514 45.2999 20.8115C44.9399 21.1714 44.5799 21.5315 44.0999 21.8315C43.3799 22.3115 42.7199 22.9715 42.2999 23.7515C41.9399 24.4715 41.8199 25.3714 41.7599 26.2114C41.6999 26.9914 42.2999 27.6515 43.0799 27.6515H43.1999C43.9199 27.6515 44.5199 27.1114 44.6999 26.5114C44.7599 25.8514 44.8199 25.0715 45.0599 24.7715C45.3599 24.3515 45.7199 24.1114 46.1399 23.8115C46.5599 23.4514 46.9799 23.1515 47.3399 22.7315C48.0599 21.9515 48.5399 20.8715 48.5399 19.7915C48.5399 18.7115 48.1799 17.6315 47.3999 16.7915C46.9199 16.2515 46.3799 15.8315 45.7199 15.5915Z" fill="white"/>
</svg>
