<svg width="16" height="16" viewBox="0 0 16 16" fill="none" xmlns="http://www.w3.org/2000/svg">
<path fill-rule="evenodd" clip-rule="evenodd" d="M5.93917 8.64654L3.69193 7.89746L3.69192 7.89746L3.69192 7.89746C1.33871 7.11306 0.162109 6.72085 0.162109 6.0001C0.162109 5.27934 1.33872 4.88713 3.69193 4.10273L12.2051 1.26501C13.8609 0.713077 14.6888 0.437112 15.1258 0.874128C15.5628 1.31114 15.2869 2.13904 14.7349 3.79483L11.8972 12.308L11.8972 12.308L11.8972 12.308C11.1128 14.6612 10.7206 15.8378 9.99983 15.8378C9.27907 15.8378 8.88687 14.6612 8.10246 12.308L7.35338 10.0608L11.7069 5.7072C12.0975 5.31668 12.0975 4.68351 11.7069 4.29299C11.3164 3.90247 10.6832 3.90247 10.2927 4.29299L5.93917 8.64654Z" fill="#12C13E"/>
</svg>
